<?xml version="1.0" standalone="no"?>
<!DOCTYPE svg PUBLIC "-//W3C//DTD SVG 20010904//EN"
 "http://www.w3.org/TR/2001/REC-SVG-20010904/DTD/svg10.dtd">
<svg version="1.0" xmlns="http://www.w3.org/2000/svg"
 width="200.000000pt" height="200.000000pt" viewBox="0 0 200.000000 200.000000"
 preserveAspectRatio="xMidYMid meet">

<g transform="translate(0.000000,200.000000) scale(0.100000,-0.100000)"
fill="#000000" stroke="none">
<path d="M960 1920 c-19 -19 -20 -31 -18 -207 l3 -187 28 -16 c24 -13 30 -13
55 0 l27 16 3 187 c2 176 1 188 -18 207 -11 11 -29 20 -40 20 -11 0 -29 -9
-40 -20z"/>
<path d="M337 1662 c-36 -40 -23 -62 116 -200 74 -73 141 -132 151 -132 22 0
66 44 66 66 0 10 -59 77 -132 151 -139 141 -165 155 -201 115z"/>
<path d="M1468 1553 c-109 -108 -128 -132 -128 -158 0 -17 5 -36 12 -43 7 -7
26 -12 43 -12 26 0 50 19 158 128 70 71 127 136 127 146 0 9 -11 28 -25 41
-13 14 -32 25 -41 25 -10 0 -75 -57 -146 -127z"/>
<path d="M890 1422 c-85 -22 -143 -58 -208 -126 -166 -175 -158 -442 18 -610
103 -98 236 -141 368 -117 96 17 163 51 232 117 182 173 183 454 2 626 -68 65
-118 93 -204 113 -80 19 -127 18 -208 -3z"/>
<path d="M80 1040 c-11 -11 -20 -29 -20 -40 0 -11 9 -29 20 -40 19 -19 31 -20
207 -18 l187 3 16 28 c13 24 13 30 0 55 l-16 27 -187 3 c-176 2 -188 1 -207
-18z"/>
<path d="M1516 1038 c-9 -12 -16 -29 -16 -38 0 -9 7 -26 16 -38 15 -21 20 -22
200 -22 171 0 185 1 204 20 11 11 20 29 20 40 0 11 -9 29 -20 40 -19 19 -33
20 -204 20 -180 0 -185 -1 -200 -22z"/>
<path d="M447 532 c-107 -107 -127 -132 -127 -158 0 -38 16 -54 55 -54 26 0
50 20 158 128 134 134 148 160 109 195 -39 36 -61 23 -195 -111z"/>
<path d="M1357 642 c-36 -40 -23 -62 111 -195 71 -70 136 -127 146 -127 22 0
66 44 66 66 0 10 -57 75 -127 146 -134 135 -160 150 -196 110z"/>
<path d="M962 484 c-21 -15 -22 -20 -22 -200 0 -171 1 -185 20 -204 11 -11 29
-20 40 -20 11 0 29 9 40 20 19 19 20 33 20 204 0 180 -1 185 -22 200 -12 9
-29 16 -38 16 -9 0 -26 -7 -38 -16z"/>
</g>
</svg>
