<svg width="130" height="42" viewBox="0 0 130 42" fill="none" xmlns="http://www.w3.org/2000/svg">
<path fill-rule="evenodd" clip-rule="evenodd" d="M46.3802 23.3341H49.0178C49.2286 25.2339 50.1514 25.9194 52.3674 25.9194C54.3708 25.9194 55.3734 25.2861 55.3734 24.0196C55.3734 22.9391 54.6879 22.4112 52.4728 22.0153L51.0752 21.7523C48.2003 21.2244 46.7496 19.8791 46.7496 17.6897C46.7496 15.2638 48.7007 13.7334 51.9981 13.7334C55.7427 13.7334 57.6682 15.2638 57.7479 18.2973H55.1892C55.0838 16.4241 54.0289 15.7908 51.9981 15.7908C50.31 15.7908 49.3605 16.4506 49.3605 17.6109C49.3605 18.6923 50.178 19.1936 51.8927 19.5363L53.3168 19.7728C56.6656 20.4061 58.0375 21.5937 58.0375 23.8354C58.0375 26.4729 55.9278 28.0025 52.3399 28.0025C48.5422 28.0025 46.5645 26.4464 46.3802 23.3341Z" fill="white"/>
<path fill-rule="evenodd" clip-rule="evenodd" d="M68.365 27.6596L64.0393 20.7762L61.772 22.9913V27.6596H59.1602V8.88159H61.772V19.9587L67.7583 14.0504H71.0556L65.9116 19.0615L71.3984 27.6596H68.365Z" fill="white"/>
<path fill-rule="evenodd" clip-rule="evenodd" d="M81.1762 14.0503H83.9714L78.8291 27.0794L76.5866 32.8292H74.0022L76.2173 27.2645L71.0476 14.0503H73.9234L75.5583 18.5336L77.5369 24.2311C77.9585 23.0177 78.6449 21.0923 79.5678 18.4813L81.1762 14.0503Z" fill="white"/>
<mask id="mask0_1_192" style="mask-type:alpha" maskUnits="userSpaceOnUse" x="0" y="0" width="130" height="42">
<path fill-rule="evenodd" clip-rule="evenodd" d="M0 41.7367H130V0.000244141H0V41.7367Z" fill="white"/>
</mask>
<g mask="url(#mask0_1_192)">
<path fill-rule="evenodd" clip-rule="evenodd" d="M85.3083 27.6596H87.9468V8.88159H85.3083V27.6596Z" fill="white"/>
<path fill-rule="evenodd" clip-rule="evenodd" d="M95.8843 25.7086C93.4309 25.7086 92.0068 24.0462 92.0068 20.9614C92.0068 17.8748 93.4575 16.0025 95.8843 16.0025C98.3101 16.0025 99.7608 17.7694 99.7608 20.856C99.7608 23.9408 98.3101 25.7086 95.8843 25.7086ZM99.7106 14.0505V15.8971C98.7089 14.4464 97.2847 13.7334 95.4124 13.7334C93.5126 13.7334 92.0097 14.3667 90.9282 15.6589C89.8203 16.9519 89.2667 18.6666 89.2667 20.856C89.2667 23.0445 89.8203 24.7591 90.9282 26.0513C92.0097 27.3435 93.5126 27.9768 95.4124 27.9768C97.3379 27.9768 98.8143 27.2116 99.8169 25.6554V27.6597H102.349V14.0505H99.7106Z" fill="white"/>
<path fill-rule="evenodd" clip-rule="evenodd" d="M113.375 24.3894C112.662 25.2591 111.687 25.7082 110.447 25.7082C109.207 25.7082 108.258 25.2866 107.546 24.4151C106.834 23.5719 106.465 22.3842 106.465 20.8556C106.465 19.3251 106.834 18.1383 107.546 17.2686C108.258 16.4245 109.207 16.0021 110.447 16.0021C112.9 16.0021 114.429 17.6902 114.429 20.7502C114.429 22.3054 114.088 23.5197 113.375 24.3894ZM115.483 15.6593C114.349 14.3671 112.818 13.7339 110.946 13.7339C109.021 13.7339 107.543 14.4725 106.515 15.9498V8.88037H103.877V27.6593H106.41V25.6028C107.438 27.1846 108.941 27.9764 110.946 27.9764C112.818 27.9764 114.349 27.3174 115.483 26.0243C116.616 24.7322 117.17 23.0175 117.17 20.8556C117.17 18.6919 116.616 16.9524 115.483 15.6593Z" fill="white"/>
<path fill-rule="evenodd" clip-rule="evenodd" d="M118.341 23.3341H120.98C121.19 25.2339 122.113 25.9194 124.329 25.9194C126.333 25.9194 127.335 25.2861 127.335 24.0196C127.335 22.9391 126.65 22.4112 124.435 22.0153L123.036 21.7523C120.162 21.2244 118.711 19.8791 118.711 17.6897C118.711 15.2638 120.663 13.7334 123.96 13.7334C127.705 13.7334 129.63 15.2638 129.709 18.2973H127.15C127.045 16.4241 125.991 15.7908 123.96 15.7908C122.271 15.7908 121.321 16.4506 121.321 17.6109C121.321 18.6923 122.14 19.1936 123.855 19.5363L125.278 19.7728C128.627 20.4061 129.999 21.5937 129.999 23.8354C129.999 26.4729 127.889 28.0025 124.302 28.0025C120.504 28.0025 118.526 26.4464 118.341 23.3341Z" fill="white"/>
<path fill-rule="evenodd" clip-rule="evenodd" d="M8.28636 16.1946L8.30496 18.1342C8.30762 18.4291 8.46704 18.7001 8.72211 18.8463L12.3357 20.9108L12.3188 17.7711C12.3162 17.4691 12.4765 17.1901 12.7386 17.0422L18.0872 14.0078C18.3414 13.8626 18.6532 13.8626 18.9065 14.0087L32.5467 21.7965C32.8053 21.9435 32.9639 22.2189 32.9656 22.5174L32.9798 27.9731C32.9816 28.7162 32.5848 29.4044 31.94 29.7746L19.5574 36.8786C18.9171 37.2479 18.1306 37.2461 17.4921 36.8768L0.0345459 26.7943L0.0487167 30.3848C0.053145 31.1102 0.442841 31.7798 1.07255 32.1385L1.08141 32.1447L17.5062 41.4664C18.1421 41.8277 18.9206 41.8268 19.5557 41.4637L35.9681 32.0951C36.6111 31.7275 37.0087 31.0429 37.0061 30.3016L36.9795 20.901C36.9786 20.158 36.5783 19.4698 35.9318 19.1013L19.5539 9.75573C18.918 9.39437 18.1395 9.39172 17.5027 9.7513L9.34297 14.3497C8.67872 14.7244 8.27308 15.4329 8.28636 16.1946Z" fill="white"/>
<path fill-rule="evenodd" clip-rule="evenodd" d="M28.7197 25.5414L28.7011 23.6425C28.6985 23.3484 28.5382 23.0792 28.284 22.9313L24.6713 20.8685L24.6873 23.9649C24.6899 24.2669 24.5296 24.5459 24.2666 24.6938L18.9198 27.7281C18.6647 27.8733 18.3529 27.8716 18.0979 27.7272L4.45849 19.9377C4.20076 19.7907 4.04134 19.5179 4.04134 19.2212L4.02628 13.5219C4.02363 12.9276 4.34247 12.3767 4.85793 12.0818L17.4469 4.85734C18.0881 4.48802 18.8764 4.48979 19.5149 4.86L36.9565 14.9434L36.953 11.406C36.9512 10.6612 36.5526 9.97565 35.9061 9.60809L19.5008 0.270441C18.864 -0.090914 18.0837 -0.090914 17.4487 0.273098L1.04422 9.63821C0.396795 10.0075 -0.00264385 10.6957 1.31736e-05 11.4414L0.0256977 20.8349C0.027469 21.578 0.427793 22.2661 1.07433 22.6346L17.4522 31.9802C18.0881 32.3416 18.8666 32.3442 19.5034 31.9846L27.6622 27.3862C28.3274 27.0116 28.733 26.303 28.7197 25.5414Z" fill="white"/>
</g>
</svg>
